<svg width="24" height="24" viewBox="0 0 24 24" fill="none" xmlns="http://www.w3.org/2000/svg">
<path d="M18.5784 7.84948C15.5837 6.34256 11.8399 6.84052 9.34019 9.34336C6.90233 11.7843 6.36899 15.41 7.74016 18.3693C7.54978 18.277 7.3613 18.1736 7.17523 18.0585C6.9905 17.9441 6.89814 17.887 6.8283 17.8593C6.69477 17.8064 6.5935 17.791 6.45031 17.8021C6.37542 17.8079 6.29058 17.8299 6.12091 17.874C5.05303 18.1511 4.51903 18.2897 4.13437 18.2113C3.46673 18.0753 2.94496 17.5528 2.80909 16.8843C2.7308 16.4992 2.86919 15.9646 3.14598 14.8954C3.18997 14.7254 3.21197 14.6404 3.21774 14.5652C3.22872 14.4218 3.21311 14.3192 3.15997 14.1856C3.13209 14.1155 3.0751 14.0237 2.96111 13.8401C0.902705 10.5236 2.49572 6.50314 4.50651 4.48982C7.82209 1.17006 13.1977 1.17006 16.5133 4.48982C17.4885 5.46626 18.1769 6.62113 18.5784 7.84948Z" fill="#DAA624"/>
<path fill-rule="evenodd" clip-rule="evenodd" d="M17.7378 21.2246C15.0041 22.9161 11.6359 21.5411 10.0476 19.9508C7.31715 17.2169 7.31715 12.7844 10.0476 10.0504C12.7781 7.31652 17.2051 7.31652 19.9356 10.0504C21.5915 11.7085 22.9034 15.0195 21.2083 17.7506C21.1144 17.9019 21.0675 17.9775 21.0445 18.0352C21.0007 18.1453 20.9879 18.2297 20.9969 18.3478C21.0017 18.4098 21.0198 18.4797 21.056 18.6197C21.284 19.5002 21.3979 19.9405 21.3335 20.2577C21.2216 20.8082 20.7919 21.2384 20.2421 21.3505C19.9253 21.415 19.4856 21.3009 18.6061 21.0727C18.4664 21.0364 18.3965 21.0183 18.3348 21.0135C18.2169 21.0044 18.1335 21.017 18.0235 21.0606C17.966 21.0834 17.8899 21.1305 17.7378 21.2246ZM12.9998 15C12.9998 15.5523 12.5521 16 11.9998 16C11.4475 16 10.9998 15.5523 10.9998 15C10.9998 14.4477 11.4475 14 11.9998 14C12.5521 14 12.9998 14.4477 12.9998 15ZM15.9998 15C15.9998 15.5523 15.5521 16 14.9998 16C14.4475 16 13.9998 15.5523 13.9998 15C13.9998 14.4477 14.4475 14 14.9998 14C15.5521 14 15.9998 14.4477 15.9998 15ZM17.9998 16C18.5521 16 18.9998 15.5523 18.9998 15C18.9998 14.4477 18.5521 14 17.9998 14C17.4475 14 16.9998 14.4477 16.9998 15C16.9998 15.5523 17.4475 16 17.9998 16Z" fill="#DAA624"/>
</svg>
