<?xml version="1.0" encoding="utf-8"?>
<!-- Generator: Adobe Illustrator 19.0.0, SVG Export Plug-In . SVG Version: 6.00 Build 0)  -->
<svg version="1.1" id="Layer_1" xmlns="http://www.w3.org/2000/svg" xmlns:xlink="http://www.w3.org/1999/xlink" x="0px" y="0px"
	 viewBox="131 -131 512 512" style="enable-background:new 131 -131 512 512;" xml:space="preserve">
<g id="XMLID_2_">
	<path fill="#DAA624" id="XMLID_7_" d="M606.7,125c-28.9-44.7-65.2-78.2-108.9-100.5c11.2,19.5,17.7,41,17.7,64.2c0,35.4-12.1,65.2-37.2,90.3
		s-54.9,37.2-90.3,37.2s-65.2-12.1-90.3-37.2c-25.1-25.1-37.2-54.9-37.2-90.3c0-23.3,5.6-44.7,17.7-64.2
		C234.3,46.8,198,80.3,169.2,125c25.1,39.1,56.8,69.8,95,93.1s79.1,34.4,123.8,34.4s85.6-11.2,123.8-34.4S581.6,164.1,606.7,125z
		 M401,15.2c0-3.7-0.9-7.4-3.7-9.3c-2.8-2.8-5.6-3.7-9.3-3.7c-24.2,0-44.7,8.4-61.4,25.1s-25.1,37.2-25.1,61.4
		c0,3.7,0.9,7.4,3.7,9.3c2.8,1.9,5.6,3.7,9.3,3.7s7.4-0.9,9.3-3.7c2.8-2.8,3.7-5.6,3.7-9.3c0-16.8,5.6-30.7,17.7-41.9
		c11.2-11.2,26.1-17.7,41.9-17.7c3.7,0,7.4-0.9,9.3-3.7C399.1,22.6,401,18.9,401,15.2z M643,125c0,6.5-1.9,13-5.6,19.5
		c-27,43.8-62.4,79.1-108,105.2c-45.6,26.1-92.2,40-142.4,40s-97.7-13-142.4-40s-81-61.4-108-105.2c-3.7-6.5-5.6-13-5.6-19.5
		s1.9-13,5.6-19.5c27-43.8,62.4-79.1,108-105.2s92.2-40,142.4-40s97.7,13,142.4,40c44.7,27,81,61.4,108,105.2
		C641.1,112,643,118.5,643,125z"/>
</g>
</svg>
